<svg xmlns="http://www.w3.org/2000/svg" xmlns:xlink="http://www.w3.org/1999/xlink" version="1.1" id="Layer_1" x="0px" y="0px" style="enable-background:new 0 0 1080 1080;" xml:space="preserve" viewBox="36.28 471.78 1007.44 136.44">
<style type="text/css">
	.st0{fill:#7A7C81;}
</style>
<g>
	<polygon class="st0" points="177.48,471.78 119.17,580.72 58.43,471.78 36.28,605.99 43.86,605.99 59.11,512.79 112.85,608.22    164.26,512.98 179.62,605.99 199.63,605.99  "/>
	<rect x="268.22" y="474.01" class="st0" width="19.33" height="131.97"/>
	<polygon class="st0" points="358.1,471.78 358.1,605.99 367.39,605.99 367.39,506.86 462.96,608.22 462.96,474.01 453.67,474.01    453.67,573.14  "/>
	<polygon class="st0" points="528.05,474.02 528.05,483.29 568.47,483.29 568.47,605.99 587.81,605.99 587.81,483.29 628.24,483.29    628.24,474.02  "/>
	<polygon class="st0" points="783.81,474.02 783.81,535.36 712.77,535.36 712.77,474.02 693.33,474.02 693.33,605.99 712.77,605.99    712.77,544.64 783.81,544.64 783.81,605.99 803.24,605.99 803.24,474.02  "/>
	<rect x="873.77" y="474.01" class="st0" width="19.34" height="131.97"/>
	<path class="st0" d="M1030.41,488.2c0,0-11.76-8.65-27.69-8.65c-12.54,0-23.52,5.64-23.52,17c0,11.18,10.01,17.79,26.04,28.57   c22.65,15.36,38.48,26.92,38.48,47.72c0,26.63-25.26,34.69-45.28,34.69c-24.3,0-38.48-11.86-38.48-11.86v-11.18   c0,0,15.55,15.65,38.58,15.65c16.33,0,27.41-7.97,27.41-21.77c0-12.35-8.55-20.51-26.73-33.43   c-22.35-16.04-36.05-25.95-36.05-43.15c0-21.09,20.12-29.64,39.75-29.64c15.94,0,27.5,5.44,27.5,5.44V488.2z"/>
</g>
</svg>