<?xml version="1.0" encoding="utf-8"?>
<!-- Generator: Adobe Illustrator 27.0.0, SVG Export Plug-In . SVG Version: 6.00 Build 0)  -->
<svg version="1.1" id="Layer_1" xmlns="http://www.w3.org/2000/svg" xmlns:xlink="http://www.w3.org/1999/xlink" x="0px" y="0px"
	 viewBox="0 0 1080 427.3" style="enable-background:new 0 0 1080 427.3;" xml:space="preserve">
<style type="text/css">
	.st0{fill:#F79727;}
</style>
<path class="st0" d="M591.79,332.22h45.77V140.33h-45.48L591.79,332.22z M591.79,112.56l45.77-47.04h-45.77V112.56z M660.83,332.22
	h45.83V65.89h-45.83V332.22z M255.04,83.58c-15.01-11.5-32.47-17.8-76.18-17.8H96.25v266.44h52.11v-96.57h36.11
	c37.73,0,55.22-6.27,72.7-20.63c16.44-13.27,27.27-39.85,27.27-65.35C284.44,124.15,273.92,98.97,255.04,83.58 M217.31,183.2
	c-10.48,5.61-22.02,6.67-33.9,6.67h-35.06v-78.29h32.97c12.92,0,24.81,1.02,35.29,6.62c10.14,4.88,17.84,15.73,17.84,32.17
	C234.45,166.78,226.76,178.32,217.31,183.2 M729.93,332.22h45.77V140.33h-45.77V332.22z M730.56,112.56l45.81-47.04h-45.81V112.56z
	 M494.37,134.36v245.08l45.77-47.21V183.49h30.33l-0.03-43.16h-30.29v-4.1c0-16.14,12.06-23.74,30.41-23.74V65.72
	C528.35,65.72,494.37,91.11,494.37,134.36 M426.61,152.02c-15.1-9.63-32.87-15.3-51.96-15.3c-54.22,0-98.35,44.94-98.35,100.2
	c0,55.2,44.12,100.16,98.35,100.16c18.97,0,36.65-5.58,51.7-15.1l-0.03,10.23h45.81V140.33h-45.48L426.61,152.02z M374.65,292.73
	c-29.74,0-53.97-25.04-53.97-55.81c0-30.8,24.22-55.84,53.97-55.84c29.71,0,53.91,25.04,53.91,55.84
	C428.56,267.69,404.36,292.73,374.65,292.73 M938.24,140.33v11.69c-15.1-9.63-32.87-15.3-51.96-15.3
	c-54.26,0-98.35,44.94-98.35,100.2c0,55.2,44.09,100.16,98.35,100.16c18.97,0,36.65-5.58,51.67-15.1v10.23h45.81V140.33H938.24z
	 M886.28,292.73c-29.74,0-53.97-25.04-53.97-55.81c0-30.8,24.22-55.84,53.97-55.84c29.71,0,53.91,25.04,53.91,55.84
	C940.18,267.69,915.99,292.73,886.28,292.73"/>
</svg>
