<svg xmlns="http://www.w3.org/2000/svg" xmlns:xlink="http://www.w3.org/1999/xlink" zoomAndPan="magnify" preserveAspectRatio="xMidYMid meet" version="1.0" viewBox="90 120.05 194.11 115.93"><defs><g/><clipPath id="371a33b436"><path d="M 90 127 L 137 127 L 137 176.296875 L 90 176.296875 Z M 90 127 " clip-rule="nonzero"/></clipPath><clipPath id="07d7588237"><path d="M 135 120.046875 L 217 120.046875 L 217 171 L 135 171 Z M 135 120.046875 " clip-rule="nonzero"/></clipPath></defs><g clip-path="url(#371a33b436)"><path fill="#89ada3" d="M 90.539062 175.066406 L 129.335938 127.4375 L 136.351562 134.417969 L 107.046875 169.726562 L 107.871094 176.296875 Z M 90.539062 175.066406 " fill-opacity="1" fill-rule="evenodd"/></g><path fill="#89ada3" d="M 284.105469 174.65625 L 258.515625 143.039062 L 253.5625 147.554688 L 273.375 170.960938 L 272.550781 175.476562 Z M 284.105469 174.65625 " fill-opacity="1" fill-rule="evenodd"/><path fill="#89ada3" d="M 254.390625 138.113281 L 224.671875 174.242188 L 178.449219 173.832031 L 203.625 147.964844 Z M 254.390625 138.113281 " fill-opacity="1" fill-rule="evenodd"/><g clip-path="url(#07d7588237)"><path fill="#89ada3" d="M 186.703125 137.292969 L 180.097656 134.417969 L 180.097656 129.078125 L 135.113281 120.457031 L 175.972656 170.136719 L 201.148438 143.859375 L 216.832031 140.988281 L 211.054688 135.238281 L 192.894531 131.542969 L 192.894531 120.046875 L 186.703125 120.046875 Z M 186.703125 137.292969 " fill-opacity="1" fill-rule="evenodd"/></g><path fill="#89ada3" d="M 139.652344 166.851562 L 139.652344 157.410156 L 130.984375 157.410156 L 130.984375 166.851562 Z M 130.984375 155.769531 L 139.652344 155.769531 L 139.652344 146.734375 C 135.113281 147.144531 131.398438 150.839844 130.984375 155.769531 Z M 141.714844 155.769531 L 150.382812 155.769531 C 149.96875 151.25 146.257812 147.144531 141.714844 146.734375 Z M 150.382812 157.410156 L 141.714844 157.410156 L 141.714844 166.851562 L 150.382812 166.851562 Z M 150.382812 157.410156 " fill-opacity="1" fill-rule="evenodd"/><path fill="#89ada3" d="M 249.847656 168.496094 L 249.847656 162.746094 L 244.484375 162.746094 L 244.484375 168.496094 Z M 244.484375 161.925781 L 249.847656 161.925781 L 249.847656 156.589844 C 246.960938 157 244.898438 159.050781 244.484375 161.925781 Z M 250.675781 161.925781 L 256.039062 161.925781 C 255.628906 159.050781 253.5625 157 250.675781 156.589844 Z M 256.039062 162.746094 L 250.675781 162.746094 L 250.675781 168.496094 L 256.039062 168.496094 Z M 256.039062 162.746094 " fill-opacity="1" fill-rule="evenodd"/><g fill="#e6f4f0" fill-opacity="1"><g transform="translate(115.982215, 210.452062)"><g><path d="M 12.1875 -24.40625 C 13.71875 -24.40625 15.0625 -24.09375 16.21875 -23.46875 C 17.382812 -22.84375 18.285156 -21.953125 18.921875 -20.796875 C 19.554688 -19.648438 19.875 -18.332031 19.875 -16.84375 C 19.875 -15.382812 19.539062 -14.097656 18.875 -12.984375 C 18.21875 -11.867188 17.289062 -11.003906 16.09375 -10.390625 C 14.90625 -9.773438 13.53125 -9.46875 11.96875 -9.46875 L 7.0625 -9.46875 C 6.925781 -9.46875 6.859375 -9.398438 6.859375 -9.265625 L 6.859375 -0.59375 C 6.859375 -0.195312 6.660156 0 6.265625 0 L 2.546875 0 C 2.148438 0 1.953125 -0.195312 1.953125 -0.59375 L 1.953125 -23.8125 C 1.953125 -24.207031 2.148438 -24.40625 2.546875 -24.40625 Z M 11.453125 -13.40625 C 12.515625 -13.40625 13.367188 -13.710938 14.015625 -14.328125 C 14.671875 -14.941406 15 -15.75 15 -16.75 C 15 -17.769531 14.671875 -18.59375 14.015625 -19.21875 C 13.367188 -19.84375 12.515625 -20.15625 11.453125 -20.15625 L 7.0625 -20.15625 C 6.925781 -20.15625 6.859375 -20.085938 6.859375 -19.953125 L 6.859375 -13.609375 C 6.859375 -13.472656 6.925781 -13.40625 7.0625 -13.40625 Z M 11.453125 -13.40625 "/></g></g></g><g fill="#e6f4f0" fill-opacity="1"><g transform="translate(136.762267, 210.452062)"><g><path d="M 15.625 0 C 15.320312 0 15.09375 -0.148438 14.9375 -0.453125 L 10.65625 -9.921875 C 10.601562 -10.035156 10.519531 -10.09375 10.40625 -10.09375 L 7.234375 -10.09375 C 7.097656 -10.09375 7.03125 -10.023438 7.03125 -9.890625 L 7.03125 -0.59375 C 7.03125 -0.195312 6.832031 0 6.4375 0 L 2.71875 0 C 2.320312 0 2.125 -0.195312 2.125 -0.59375 L 2.125 -23.8125 C 2.125 -24.207031 2.320312 -24.40625 2.71875 -24.40625 L 12.5 -24.40625 C 13.976562 -24.40625 15.28125 -24.097656 16.40625 -23.484375 C 17.539062 -22.867188 18.414062 -22.003906 19.03125 -20.890625 C 19.644531 -19.773438 19.953125 -18.5 19.953125 -17.0625 C 19.953125 -15.476562 19.554688 -14.117188 18.765625 -12.984375 C 17.972656 -11.847656 16.878906 -11.046875 15.484375 -10.578125 C 15.421875 -10.554688 15.375 -10.515625 15.34375 -10.453125 C 15.320312 -10.398438 15.335938 -10.347656 15.390625 -10.296875 L 19.984375 -0.703125 C 20.054688 -0.609375 20.09375 -0.503906 20.09375 -0.390625 C 20.09375 -0.265625 20.046875 -0.164062 19.953125 -0.09375 C 19.859375 -0.03125 19.726562 0 19.5625 0 Z M 7.234375 -20.15625 C 7.097656 -20.15625 7.03125 -20.085938 7.03125 -19.953125 L 7.03125 -14.09375 C 7.03125 -13.957031 7.097656 -13.890625 7.234375 -13.890625 L 11.765625 -13.890625 C 12.742188 -13.890625 13.539062 -14.171875 14.15625 -14.734375 C 14.769531 -15.304688 15.078125 -16.054688 15.078125 -16.984375 C 15.078125 -17.910156 14.769531 -18.671875 14.15625 -19.265625 C 13.539062 -19.859375 12.742188 -20.15625 11.765625 -20.15625 Z M 7.234375 -20.15625 "/></g></g></g><g fill="#e6f4f0" fill-opacity="1"><g transform="translate(158.134047, 210.452062)"><g><path d="M 19.046875 -20.75 C 19.046875 -20.351562 18.847656 -20.15625 18.453125 -20.15625 L 7.234375 -20.15625 C 7.097656 -20.15625 7.03125 -20.085938 7.03125 -19.953125 L 7.03125 -14.625 C 7.03125 -14.476562 7.097656 -14.40625 7.234375 -14.40625 L 14.515625 -14.40625 C 14.910156 -14.40625 15.109375 -14.210938 15.109375 -13.828125 L 15.109375 -10.796875 C 15.109375 -10.398438 14.910156 -10.203125 14.515625 -10.203125 L 7.234375 -10.203125 C 7.097656 -10.203125 7.03125 -10.128906 7.03125 -9.984375 L 7.03125 -4.421875 C 7.03125 -4.285156 7.097656 -4.21875 7.234375 -4.21875 L 18.453125 -4.21875 C 18.847656 -4.21875 19.046875 -4.019531 19.046875 -3.625 L 19.046875 -0.59375 C 19.046875 -0.195312 18.847656 0 18.453125 0 L 2.71875 0 C 2.320312 0 2.125 -0.195312 2.125 -0.59375 L 2.125 -23.78125 C 2.125 -24.175781 2.320312 -24.375 2.71875 -24.375 L 18.453125 -24.375 C 18.847656 -24.375 19.046875 -24.175781 19.046875 -23.78125 Z M 19.046875 -20.75 "/></g></g></g><g fill="#e6f4f0" fill-opacity="1"><g transform="translate(178.461605, 210.452062)"><g><path d="M 2.75 0 C 2.351562 0 2.15625 -0.195312 2.15625 -0.59375 L 2.15625 -23.78125 C 2.15625 -24.175781 2.351562 -24.375 2.75 -24.375 L 6.46875 -24.375 C 6.769531 -24.375 7.003906 -24.242188 7.171875 -23.984375 L 12.21875 -15.84375 C 12.257812 -15.769531 12.3125 -15.734375 12.375 -15.734375 C 12.4375 -15.734375 12.476562 -15.769531 12.5 -15.84375 L 17.609375 -23.984375 C 17.773438 -24.242188 18.007812 -24.375 18.3125 -24.375 L 22.03125 -24.375 C 22.425781 -24.375 22.625 -24.175781 22.625 -23.78125 L 22.625 -0.59375 C 22.625 -0.195312 22.425781 0 22.03125 0 L 18.3125 0 C 17.914062 0 17.71875 -0.195312 17.71875 -0.59375 L 17.71875 -15.671875 C 17.71875 -15.765625 17.6875 -15.820312 17.625 -15.84375 C 17.570312 -15.863281 17.519531 -15.828125 17.46875 -15.734375 L 13.953125 -9.984375 C 13.796875 -9.734375 13.566406 -9.609375 13.265625 -9.609375 L 11.484375 -9.609375 C 11.179688 -9.609375 10.953125 -9.734375 10.796875 -9.984375 L 7.3125 -15.734375 C 7.257812 -15.828125 7.203125 -15.863281 7.140625 -15.84375 C 7.085938 -15.820312 7.0625 -15.765625 7.0625 -15.671875 L 7.0625 -0.59375 C 7.0625 -0.195312 6.863281 0 6.46875 0 Z M 2.75 0 "/></g></g></g><g fill="#e6f4f0" fill-opacity="1"><g transform="translate(203.209708, 210.452062)"><g><path d="M 2.71875 0 C 2.320312 0 2.125 -0.195312 2.125 -0.59375 L 2.125 -23.78125 C 2.125 -24.175781 2.320312 -24.375 2.71875 -24.375 L 6.4375 -24.375 C 6.832031 -24.375 7.03125 -24.175781 7.03125 -23.78125 L 7.03125 -0.59375 C 7.03125 -0.195312 6.832031 0 6.4375 0 Z M 2.71875 0 "/></g></g></g><g fill="#e6f4f0" fill-opacity="1"><g transform="translate(212.364066, 210.452062)"><g><path d="M 10.96875 0.28125 C 9.175781 0.28125 7.601562 -0.0664062 6.25 -0.765625 C 4.894531 -1.460938 3.835938 -2.441406 3.078125 -3.703125 C 2.328125 -4.972656 1.953125 -6.429688 1.953125 -8.078125 L 1.953125 -23.78125 C 1.953125 -24.175781 2.148438 -24.375 2.546875 -24.375 L 6.265625 -24.375 C 6.660156 -24.375 6.859375 -24.175781 6.859375 -23.78125 L 6.859375 -8.046875 C 6.859375 -6.816406 7.234375 -5.820312 7.984375 -5.0625 C 8.742188 -4.3125 9.738281 -3.9375 10.96875 -3.9375 C 12.195312 -3.9375 13.1875 -4.3125 13.9375 -5.0625 C 14.695312 -5.820312 15.078125 -6.816406 15.078125 -8.046875 L 15.078125 -23.78125 C 15.078125 -24.175781 15.273438 -24.375 15.671875 -24.375 L 19.390625 -24.375 C 19.785156 -24.375 19.984375 -24.175781 19.984375 -23.78125 L 19.984375 -8.078125 C 19.984375 -6.429688 19.601562 -4.972656 18.84375 -3.703125 C 18.09375 -2.441406 17.035156 -1.460938 15.671875 -0.765625 C 14.316406 -0.0664062 12.75 0.28125 10.96875 0.28125 Z M 10.96875 0.28125 "/></g></g></g><g fill="#e6f4f0" fill-opacity="1"><g transform="translate(234.257962, 210.452062)"><g><path d="M 2.75 0 C 2.351562 0 2.15625 -0.195312 2.15625 -0.59375 L 2.15625 -23.78125 C 2.15625 -24.175781 2.351562 -24.375 2.75 -24.375 L 6.46875 -24.375 C 6.769531 -24.375 7.003906 -24.242188 7.171875 -23.984375 L 12.21875 -15.84375 C 12.257812 -15.769531 12.3125 -15.734375 12.375 -15.734375 C 12.4375 -15.734375 12.476562 -15.769531 12.5 -15.84375 L 17.609375 -23.984375 C 17.773438 -24.242188 18.007812 -24.375 18.3125 -24.375 L 22.03125 -24.375 C 22.425781 -24.375 22.625 -24.175781 22.625 -23.78125 L 22.625 -0.59375 C 22.625 -0.195312 22.425781 0 22.03125 0 L 18.3125 0 C 17.914062 0 17.71875 -0.195312 17.71875 -0.59375 L 17.71875 -15.671875 C 17.71875 -15.765625 17.6875 -15.820312 17.625 -15.84375 C 17.570312 -15.863281 17.519531 -15.828125 17.46875 -15.734375 L 13.953125 -9.984375 C 13.796875 -9.734375 13.566406 -9.609375 13.265625 -9.609375 L 11.484375 -9.609375 C 11.179688 -9.609375 10.953125 -9.734375 10.796875 -9.984375 L 7.3125 -15.734375 C 7.257812 -15.828125 7.203125 -15.863281 7.140625 -15.84375 C 7.085938 -15.820312 7.0625 -15.765625 7.0625 -15.671875 L 7.0625 -0.59375 C 7.0625 -0.195312 6.863281 0 6.46875 0 Z M 2.75 0 "/></g></g></g><g fill="#e6f4f0" fill-opacity="1"><g transform="translate(145.468065, 235.806348)"><g><path d="M 10.28125 0 C 10.070312 0 9.929688 -0.0859375 9.859375 -0.265625 L 7 -6.53125 C 6.976562 -6.59375 6.925781 -6.625 6.84375 -6.625 L 4.28125 -6.625 C 4.1875 -6.625 4.140625 -6.578125 4.140625 -6.484375 L 4.140625 -0.34375 C 4.140625 -0.113281 4.023438 0 3.796875 0 L 1.953125 0 C 1.710938 0 1.59375 -0.113281 1.59375 -0.34375 L 1.59375 -15.015625 C 1.59375 -15.253906 1.710938 -15.375 1.953125 -15.375 L 7.890625 -15.375 C 8.785156 -15.375 9.578125 -15.1875 10.265625 -14.8125 C 10.953125 -14.4375 11.484375 -13.90625 11.859375 -13.21875 C 12.242188 -12.539062 12.4375 -11.765625 12.4375 -10.890625 C 12.4375 -9.878906 12.175781 -9.019531 11.65625 -8.3125 C 11.132812 -7.601562 10.421875 -7.117188 9.515625 -6.859375 C 9.472656 -6.847656 9.441406 -6.820312 9.421875 -6.78125 C 9.410156 -6.75 9.421875 -6.71875 9.453125 -6.6875 L 12.46875 -0.421875 L 12.515625 -0.234375 C 12.515625 -0.078125 12.410156 0 12.203125 0 Z M 4.28125 -13.171875 C 4.1875 -13.171875 4.140625 -13.128906 4.140625 -13.046875 L 4.140625 -8.71875 C 4.140625 -8.632812 4.1875 -8.59375 4.28125 -8.59375 L 7.546875 -8.59375 C 8.242188 -8.59375 8.804688 -8.800781 9.234375 -9.21875 C 9.671875 -9.632812 9.890625 -10.175781 9.890625 -10.84375 C 9.890625 -11.53125 9.671875 -12.085938 9.234375 -12.515625 C 8.804688 -12.953125 8.242188 -13.171875 7.546875 -13.171875 Z M 4.28125 -13.171875 "/></g></g></g><g fill="#e6f4f0" fill-opacity="1"><g transform="translate(161.125316, 235.806348)"><g><path d="M 6.375 -1.96875 C 6.914062 -1.988281 7.382812 -2.101562 7.78125 -2.3125 C 8.1875 -2.519531 8.515625 -2.804688 8.765625 -3.171875 C 8.835938 -3.296875 8.929688 -3.359375 9.046875 -3.359375 C 9.117188 -3.359375 9.1875 -3.332031 9.25 -3.28125 L 10.296875 -2.453125 C 10.398438 -2.347656 10.453125 -2.253906 10.453125 -2.171875 C 10.453125 -2.109375 10.429688 -2.039062 10.390625 -1.96875 C 9.960938 -1.300781 9.382812 -0.773438 8.65625 -0.390625 C 7.925781 -0.015625 7.085938 0.171875 6.140625 0.171875 C 4.984375 0.171875 4.015625 -0.0976562 3.234375 -0.640625 C 2.453125 -1.191406 1.882812 -1.957031 1.53125 -2.9375 C 1.238281 -3.738281 1.09375 -4.644531 1.09375 -5.65625 C 1.09375 -6.664062 1.175781 -7.441406 1.34375 -7.984375 C 1.613281 -9.015625 2.15625 -9.835938 2.96875 -10.453125 C 3.789062 -11.066406 4.789062 -11.375 5.96875 -11.375 C 8.695312 -11.375 10.296875 -9.878906 10.765625 -6.890625 C 10.835938 -6.398438 10.890625 -5.796875 10.921875 -5.078125 C 10.921875 -4.847656 10.800781 -4.734375 10.5625 -4.734375 L 3.765625 -4.734375 C 3.679688 -4.734375 3.640625 -4.691406 3.640625 -4.609375 C 3.640625 -4.210938 3.679688 -3.890625 3.765625 -3.640625 C 3.929688 -3.109375 4.238281 -2.695312 4.6875 -2.40625 C 5.144531 -2.113281 5.707031 -1.96875 6.375 -1.96875 Z M 5.9375 -9.1875 C 5.382812 -9.1875 4.925781 -9.050781 4.5625 -8.78125 C 4.207031 -8.507812 3.96875 -8.132812 3.84375 -7.65625 C 3.738281 -7.363281 3.675781 -7.054688 3.65625 -6.734375 C 3.644531 -6.640625 3.679688 -6.59375 3.765625 -6.59375 L 8.171875 -6.59375 C 8.265625 -6.59375 8.3125 -6.640625 8.3125 -6.734375 C 8.25 -7.171875 8.203125 -7.429688 8.171875 -7.515625 C 8.046875 -8.023438 7.785156 -8.429688 7.390625 -8.734375 C 7.003906 -9.035156 6.519531 -9.1875 5.9375 -9.1875 Z M 5.9375 -9.1875 "/></g></g></g><g fill="#e6f4f0" fill-opacity="1"><g transform="translate(175.225641, 235.806348)"><g><path d="M 5.640625 -11.375 C 6.554688 -11.375 7.367188 -11.210938 8.078125 -10.890625 C 8.785156 -10.566406 9.328125 -10.125 9.703125 -9.5625 C 10.085938 -9 10.28125 -8.363281 10.28125 -7.65625 L 10.28125 -0.34375 C 10.28125 -0.113281 10.164062 0 9.9375 0 L 8.09375 0 C 7.851562 0 7.734375 -0.113281 7.734375 -0.34375 L 7.734375 -0.90625 C 7.734375 -0.957031 7.71875 -0.988281 7.6875 -1 C 7.664062 -1.007812 7.628906 -1 7.578125 -0.96875 C 6.796875 -0.207031 5.742188 0.171875 4.421875 0.171875 C 3.347656 0.171875 2.460938 -0.101562 1.765625 -0.65625 C 1.066406 -1.207031 0.71875 -2.035156 0.71875 -3.140625 C 0.71875 -4.273438 1.113281 -5.160156 1.90625 -5.796875 C 2.707031 -6.429688 3.832031 -6.75 5.28125 -6.75 L 7.609375 -6.75 C 7.691406 -6.75 7.734375 -6.796875 7.734375 -6.890625 L 7.734375 -7.390625 C 7.734375 -7.960938 7.5625 -8.40625 7.21875 -8.71875 C 6.875 -9.03125 6.367188 -9.1875 5.703125 -9.1875 C 5.191406 -9.1875 4.765625 -9.09375 4.421875 -8.90625 C 4.085938 -8.726562 3.863281 -8.476562 3.75 -8.15625 C 3.6875 -7.945312 3.554688 -7.851562 3.359375 -7.875 L 1.375 -8.109375 C 1.257812 -8.128906 1.171875 -8.160156 1.109375 -8.203125 C 1.054688 -8.253906 1.035156 -8.316406 1.046875 -8.390625 C 1.179688 -9.273438 1.664062 -9.992188 2.5 -10.546875 C 3.34375 -11.097656 4.390625 -11.375 5.640625 -11.375 Z M 5.125 -1.84375 C 5.84375 -1.84375 6.457031 -2.03125 6.96875 -2.40625 C 7.476562 -2.789062 7.734375 -3.273438 7.734375 -3.859375 L 7.734375 -4.859375 C 7.734375 -4.953125 7.691406 -5 7.609375 -5 L 5.78125 -5 C 5.007812 -5 4.394531 -4.851562 3.9375 -4.5625 C 3.488281 -4.269531 3.265625 -3.851562 3.265625 -3.3125 C 3.265625 -2.84375 3.4375 -2.476562 3.78125 -2.21875 C 4.132812 -1.96875 4.582031 -1.84375 5.125 -1.84375 Z M 5.125 -1.84375 "/></g></g></g><g fill="#e6f4f0" fill-opacity="1"><g transform="translate(188.887393, 235.806348)"><g><path d="M 1.734375 0 C 1.492188 0 1.375 -0.113281 1.375 -0.34375 L 1.375 -15 C 1.375 -15.226562 1.492188 -15.34375 1.734375 -15.34375 L 3.578125 -15.34375 C 3.804688 -15.34375 3.921875 -15.226562 3.921875 -15 L 3.921875 -0.34375 C 3.921875 -0.113281 3.804688 0 3.578125 0 Z M 1.734375 0 "/></g></g></g><g fill="#e6f4f0" fill-opacity="1"><g transform="translate(196.431072, 235.806348)"><g><path d="M 7.296875 -9.484375 C 7.296875 -9.253906 7.179688 -9.140625 6.953125 -9.140625 L 4.828125 -9.140625 C 4.734375 -9.140625 4.6875 -9.097656 4.6875 -9.015625 L 4.6875 -3.84375 C 4.6875 -3.269531 4.804688 -2.859375 5.046875 -2.609375 C 5.296875 -2.359375 5.679688 -2.234375 6.203125 -2.234375 L 6.78125 -2.234375 C 7.007812 -2.234375 7.125 -2.117188 7.125 -1.890625 L 7.125 -0.421875 C 7.125 -0.179688 7.007812 -0.0546875 6.78125 -0.046875 L 5.71875 -0.015625 C 4.5625 -0.015625 3.695312 -0.21875 3.125 -0.625 C 2.5625 -1.03125 2.273438 -1.78125 2.265625 -2.875 L 2.265625 -9.015625 C 2.265625 -9.097656 2.21875 -9.140625 2.125 -9.140625 L 0.984375 -9.140625 C 0.753906 -9.140625 0.640625 -9.253906 0.640625 -9.484375 L 0.640625 -10.84375 C 0.640625 -11.082031 0.753906 -11.203125 0.984375 -11.203125 L 2.125 -11.203125 C 2.21875 -11.203125 2.265625 -11.242188 2.265625 -11.328125 L 2.265625 -13.78125 C 2.265625 -14.019531 2.378906 -14.140625 2.609375 -14.140625 L 4.34375 -14.140625 C 4.570312 -14.140625 4.6875 -14.019531 4.6875 -13.78125 L 4.6875 -11.328125 C 4.6875 -11.242188 4.734375 -11.203125 4.828125 -11.203125 L 6.953125 -11.203125 C 7.179688 -11.203125 7.296875 -11.082031 7.296875 -10.84375 Z M 7.296875 -9.484375 "/></g></g></g><g fill="#e6f4f0" fill-opacity="1"><g transform="translate(206.847395, 235.806348)"><g><path d="M 6.140625 0.171875 C 4.984375 0.171875 3.988281 -0.117188 3.15625 -0.703125 C 2.320312 -1.285156 1.742188 -2.097656 1.421875 -3.140625 C 1.171875 -3.847656 1.046875 -4.679688 1.046875 -5.640625 C 1.046875 -6.566406 1.164062 -7.398438 1.40625 -8.140625 C 1.738281 -9.160156 2.320312 -9.953125 3.15625 -10.515625 C 3.988281 -11.085938 4.988281 -11.375 6.15625 -11.375 C 7.269531 -11.375 8.234375 -11.085938 9.046875 -10.515625 C 9.859375 -9.953125 10.429688 -9.164062 10.765625 -8.15625 C 11.023438 -7.457031 11.15625 -6.625 11.15625 -5.65625 C 11.15625 -4.738281 11.03125 -3.90625 10.78125 -3.15625 C 10.445312 -2.113281 9.867188 -1.296875 9.046875 -0.703125 C 8.234375 -0.117188 7.265625 0.171875 6.140625 0.171875 Z M 6.140625 -2.015625 C 6.679688 -2.015625 7.144531 -2.164062 7.53125 -2.46875 C 7.914062 -2.78125 8.191406 -3.210938 8.359375 -3.765625 C 8.515625 -4.234375 8.59375 -4.847656 8.59375 -5.609375 C 8.59375 -6.328125 8.519531 -6.941406 8.375 -7.453125 C 8.21875 -8.003906 7.9375 -8.429688 7.53125 -8.734375 C 7.125 -9.035156 6.644531 -9.1875 6.09375 -9.1875 C 5.539062 -9.1875 5.066406 -9.035156 4.671875 -8.734375 C 4.273438 -8.429688 4 -8.003906 3.84375 -7.453125 C 3.6875 -6.941406 3.609375 -6.328125 3.609375 -5.609375 C 3.609375 -4.890625 3.6875 -4.273438 3.84375 -3.765625 C 4 -3.210938 4.273438 -2.78125 4.671875 -2.46875 C 5.078125 -2.164062 5.566406 -2.015625 6.140625 -2.015625 Z M 6.140625 -2.015625 "/></g></g></g><g fill="#e6f4f0" fill-opacity="1"><g transform="translate(221.276644, 235.806348)"><g><path d="M 6.578125 -11.328125 C 7.003906 -11.328125 7.390625 -11.25 7.734375 -11.09375 C 7.910156 -11 7.976562 -10.851562 7.9375 -10.65625 L 7.578125 -8.828125 C 7.566406 -8.710938 7.523438 -8.640625 7.453125 -8.609375 C 7.390625 -8.585938 7.296875 -8.585938 7.171875 -8.609375 C 6.992188 -8.671875 6.757812 -8.703125 6.46875 -8.703125 C 6.289062 -8.703125 6.148438 -8.695312 6.046875 -8.6875 C 5.429688 -8.65625 4.921875 -8.4375 4.515625 -8.03125 C 4.109375 -7.632812 3.90625 -7.113281 3.90625 -6.46875 L 3.90625 -0.34375 C 3.90625 -0.113281 3.785156 0 3.546875 0 L 1.703125 0 C 1.472656 0 1.359375 -0.113281 1.359375 -0.34375 L 1.359375 -10.84375 C 1.359375 -11.082031 1.472656 -11.203125 1.703125 -11.203125 L 3.546875 -11.203125 C 3.785156 -11.203125 3.90625 -11.082031 3.90625 -10.84375 L 3.90625 -10 C 3.90625 -9.9375 3.914062 -9.894531 3.9375 -9.875 C 3.96875 -9.863281 4 -9.890625 4.03125 -9.953125 C 4.644531 -10.867188 5.492188 -11.328125 6.578125 -11.328125 Z M 6.578125 -11.328125 "/></g></g></g></svg>